<svg width="11" height="19" viewBox="0 0 11 19" fill="none" xmlns="http://www.w3.org/2000/svg">
<path d="M8.72535 2.35016C8.63887 2.26331 8.53613 2.1944 8.42303 2.14739C8.30992 2.10037 8.18866 2.07617 8.06621 2.07617C7.94375 2.07617 7.82249 2.10037 7.70939 2.14739C7.59628 2.1944 7.49354 2.26331 7.40706 2.35016L1.21781 8.55009C1.14877 8.61911 1.09399 8.7011 1.05661 8.79135C1.01924 8.88161 1 8.97836 1 9.07607C1 9.17379 1.01924 9.27054 1.05661 9.3608C1.09399 9.45105 1.14877 9.53304 1.21781 9.60206L7.40706 15.802C7.77201 16.1676 8.3604 16.1676 8.72535 15.802C9.0903 15.4364 9.0903 14.847 8.72535 14.4814L3.33303 9.07234L8.7328 3.66326C9.0903 3.30514 9.0903 2.70828 8.72535 2.35016Z" fill="#0C0C0C" stroke="#0C0C0C" stroke-width="0.2"/>
</svg>
