<svg width="17" height="17" viewBox="0 0 17 17" fill="none" xmlns="http://www.w3.org/2000/svg">
<path d="M8.5 1.0625C9.20448 1.0625 9.88011 1.34235 10.3783 1.8405C10.8764 2.33864 11.1562 3.01427 11.1562 3.71875V4.25H5.84375V3.71875C5.84375 3.01427 6.1236 2.33864 6.62175 1.8405C7.11989 1.34235 7.79552 1.0625 8.5 1.0625ZM12.2188 4.25V3.71875C12.2188 2.73248 11.827 1.7866 11.1296 1.0892C10.4322 0.391796 9.48627 0 8.5 0C7.51373 0 6.56785 0.391796 5.87045 1.0892C5.17305 1.7866 4.78125 2.73248 4.78125 3.71875V4.25H1.0625V14.875C1.0625 15.4386 1.28638 15.9791 1.6849 16.3776C2.08341 16.7761 2.62391 17 3.1875 17H13.8125C14.3761 17 14.9166 16.7761 15.3151 16.3776C15.7136 15.9791 15.9375 15.4386 15.9375 14.875V4.25H12.2188ZM2.125 5.3125H14.875V14.875C14.875 15.1568 14.7631 15.427 14.5638 15.6263C14.3645 15.8256 14.0943 15.9375 13.8125 15.9375H3.1875C2.90571 15.9375 2.63546 15.8256 2.4362 15.6263C2.23694 15.427 2.125 15.1568 2.125 14.875V5.3125Z" fill="#0C0C0C"/>
</svg>
