<svg width="32" height="32" viewBox="0 0 32 32" fill="none" xmlns="http://www.w3.org/2000/svg">
<path d="M5.57782 26C5.48737 25.9994 5.3983 25.9746 5.3178 25.9278C5.22251 25.8732 5.14238 25.7898 5.08628 25.6867C5.03019 25.5836 5.00032 25.4648 5 25.3436C5 22.8887 6.0343 20.1515 7.70998 20.0005C8.13887 19.9905 8.56109 20.1222 8.92527 20.3798C9.28945 20.6373 9.57989 21.0095 9.76124 21.4512C9.96232 21.893 10.0391 22.3944 9.98124 22.8874C9.92337 23.3805 9.73363 23.8415 9.43766 24.208C9.16196 24.5707 8.82281 24.8642 8.44181 25.0699C8.0608 25.2756 7.64627 25.3889 7.22461 25.4027C6.7586 25.4159 6.30558 25.5798 5.91874 25.8753C5.81959 25.9568 5.70022 26.0005 5.57782 26ZM7.84288 21.3068H7.80243C7.10905 21.4052 6.45033 22.718 6.23076 24.2671C6.51507 24.1834 6.80495 24.1263 7.09749 24.0964C7.37378 24.1058 7.64849 24.0459 7.90213 23.9212C8.15577 23.7964 8.38214 23.6097 8.56516 23.3744C8.71386 23.2053 8.81051 22.9862 8.84071 22.7496C8.8709 22.513 8.83303 22.2717 8.73272 22.0616C8.65214 21.861 8.52837 21.6867 8.37285 21.5548C8.21734 21.4229 8.03507 21.3376 7.84288 21.3068Z" fill="#0C0C0C"/>
<path d="M11.6898 22C11.5031 21.9993 11.3242 21.9294 11.1917 21.8054L9.20637 19.9061C9.07491 19.7811 9.0008 19.6124 9.00001 19.4363C8.99947 19.348 9.01742 19.2604 9.05283 19.1787C9.08824 19.0969 9.14042 19.0225 9.20637 18.9598L23.7724 5.19516C23.9057 5.07016 24.0861 5 24.2741 5C24.4621 5 24.6424 5.07016 24.7757 5.19516L26.7895 7.09443C26.8562 7.15682 26.9091 7.23104 26.9453 7.31282C26.9814 7.39461 27 7.48233 27 7.57092C27 7.65952 26.9814 7.74724 26.9453 7.82902C26.9091 7.9108 26.8562 7.98503 26.7895 8.04742L12.195 21.7785C12.1309 21.8456 12.0531 21.8998 11.9663 21.9378C11.8795 21.9759 11.7855 21.997 11.6898 22ZM10.6865 19.4363L11.6898 20.3826L25.281 7.57092L24.2705 6.61793L10.6865 19.4363Z" fill="#0C0C0C"/>
</svg>
