<svg width="32" height="32" viewBox="0 0 32 32" fill="none" xmlns="http://www.w3.org/2000/svg">
<path d="M25.3333 18.667C28.2788 18.667 30.6667 21.3337 30.6667 23.3337C30.6667 24.4382 29.7712 25.3337 28.6667 25.3337H28M22.6667 14.667C24.8759 14.667 26.6667 12.8761 26.6667 10.667C26.6667 8.45786 24.8759 6.66699 22.6667 6.66699M6.66668 18.667C3.72116 18.667 1.33334 21.3337 1.33334 23.3337C1.33334 24.4382 2.22877 25.3337 3.33334 25.3337H4.00001M9.33334 14.667C7.12421 14.667 5.33334 12.8761 5.33334 10.667C5.33334 8.45786 7.12421 6.66699 9.33334 6.66699M22 25.3337H10C8.89544 25.3337 8.00001 24.4382 8.00001 23.3337C8.00001 20.0003 12 18.667 16 18.667C20 18.667 24 20.0003 24 23.3337C24 24.4382 23.1045 25.3337 22 25.3337ZM20 10.667C20 12.8761 18.2092 14.667 16 14.667C13.7908 14.667 12 12.8761 12 10.667C12 8.45786 13.7908 6.66699 16 6.66699C18.2092 6.66699 20 8.45786 20 10.667Z" stroke="#0C0C0C" stroke-width="1.5" stroke-linecap="round" stroke-linejoin="round"/>
</svg>
