<svg width="21" height="22" viewBox="0 0 21 22" fill="none" xmlns="http://www.w3.org/2000/svg">
<path d="M1.75 11C1.75 7.70038 1.75 6.05012 2.7755 5.0255C3.80012 4 5.45038 4 8.75 4H12.25C15.5496 4 17.1999 4 18.2245 5.0255C19.25 6.05012 19.25 7.70038 19.25 11V12.75C19.25 16.0496 19.25 17.6999 18.2245 18.7245C17.1999 19.75 15.5496 19.75 12.25 19.75H8.75C5.45038 19.75 3.80012 19.75 2.7755 18.7245C1.75 17.6999 1.75 16.0496 1.75 12.75V11Z" stroke="#0C0C0C" stroke-width="1.5"/>
<path d="M6.125 4V2.6875M14.875 4V2.6875M2.1875 8.375H18.8125" stroke="#0C0C0C" stroke-width="1.5" stroke-linecap="round"/>
<path d="M15.75 15.375C15.75 15.6071 15.6578 15.8296 15.4937 15.9937C15.3296 16.1578 15.1071 16.25 14.875 16.25C14.6429 16.25 14.4204 16.1578 14.2563 15.9937C14.0922 15.8296 14 15.6071 14 15.375C14 15.1429 14.0922 14.9204 14.2563 14.7563C14.4204 14.5922 14.6429 14.5 14.875 14.5C15.1071 14.5 15.3296 14.5922 15.4937 14.7563C15.6578 14.9204 15.75 15.1429 15.75 15.375ZM15.75 11.875C15.75 12.1071 15.6578 12.3296 15.4937 12.4937C15.3296 12.6578 15.1071 12.75 14.875 12.75C14.6429 12.75 14.4204 12.6578 14.2563 12.4937C14.0922 12.3296 14 12.1071 14 11.875C14 11.6429 14.0922 11.4204 14.2563 11.2563C14.4204 11.0922 14.6429 11 14.875 11C15.1071 11 15.3296 11.0922 15.4937 11.2563C15.6578 11.4204 15.75 11.6429 15.75 11.875ZM11.375 15.375C11.375 15.6071 11.2828 15.8296 11.1187 15.9937C10.9546 16.1578 10.7321 16.25 10.5 16.25C10.2679 16.25 10.0454 16.1578 9.88128 15.9937C9.71719 15.8296 9.625 15.6071 9.625 15.375C9.625 15.1429 9.71719 14.9204 9.88128 14.7563C10.0454 14.5922 10.2679 14.5 10.5 14.5C10.7321 14.5 10.9546 14.5922 11.1187 14.7563C11.2828 14.9204 11.375 15.1429 11.375 15.375ZM11.375 11.875C11.375 12.1071 11.2828 12.3296 11.1187 12.4937C10.9546 12.6578 10.7321 12.75 10.5 12.75C10.2679 12.75 10.0454 12.6578 9.88128 12.4937C9.71719 12.3296 9.625 12.1071 9.625 11.875C9.625 11.6429 9.71719 11.4204 9.88128 11.2563C10.0454 11.0922 10.2679 11 10.5 11C10.7321 11 10.9546 11.0922 11.1187 11.2563C11.2828 11.4204 11.375 11.6429 11.375 11.875ZM7 15.375C7 15.6071 6.90781 15.8296 6.74372 15.9937C6.57962 16.1578 6.35706 16.25 6.125 16.25C5.89294 16.25 5.67038 16.1578 5.50628 15.9937C5.34219 15.8296 5.25 15.6071 5.25 15.375C5.25 15.1429 5.34219 14.9204 5.50628 14.7563C5.67038 14.5922 5.89294 14.5 6.125 14.5C6.35706 14.5 6.57962 14.5922 6.74372 14.7563C6.90781 14.9204 7 15.1429 7 15.375ZM7 11.875C7 12.1071 6.90781 12.3296 6.74372 12.4937C6.57962 12.6578 6.35706 12.75 6.125 12.75C5.89294 12.75 5.67038 12.6578 5.50628 12.4937C5.34219 12.3296 5.25 12.1071 5.25 11.875C5.25 11.6429 5.34219 11.4204 5.50628 11.2563C5.67038 11.0922 5.89294 11 6.125 11C6.35706 11 6.57962 11.0922 6.74372 11.2563C6.90781 11.4204 7 11.6429 7 11.875Z" fill="#0C0C0C"/>
</svg>
