<svg width="26" height="24" viewBox="0 0 26 24" fill="none" xmlns="http://www.w3.org/2000/svg">
<path d="M13 20L12.6824 19.7306C5.85294 14.0741 4 12.0808 4 8.84848C4 6.15488 6.11765 4 8.76471 4C10.9353 4 12.1529 5.23906 13 6.20875C13.8471 5.23906 15.0647 4 17.2353 4C19.8824 4 22 6.15488 22 8.84848C22 12.0808 20.1471 14.0741 13.3176 19.7306L13 20ZM8.76471 5.07744C6.7 5.07744 5.05882 6.74747 5.05882 8.84848C5.05882 11.596 6.75294 13.4276 13 18.5993C19.2471 13.4276 20.9412 11.596 20.9412 8.84848C20.9412 6.74747 19.3 5.07744 17.2353 5.07744C15.3824 5.07744 14.3765 6.20875 13.5824 7.12458L13 7.82492L12.4176 7.12458C11.6235 6.20875 10.6176 5.07744 8.76471 5.07744Z" fill="#0C0C0C"/>
</svg>
