<svg width="11" height="19" viewBox="0 0 11 19" fill="none" xmlns="http://www.w3.org/2000/svg">
<path d="M2.27465 16.6498C2.36113 16.7367 2.46387 16.8056 2.57697 16.8526C2.69008 16.8996 2.81134 16.9238 2.93379 16.9238C3.05625 16.9238 3.17751 16.8996 3.29061 16.8526C3.40372 16.8056 3.50646 16.7367 3.59294 16.6498L9.78219 10.4499C9.85123 10.3809 9.90601 10.2989 9.94339 10.2086C9.98076 10.1184 10 10.0216 10 9.92393C10 9.82621 9.98076 9.72946 9.94339 9.6392C9.90601 9.54895 9.85123 9.46696 9.78219 9.39794L3.59294 3.19801C3.22799 2.83243 2.6396 2.83243 2.27465 3.19801C1.9097 3.56359 1.9097 4.15299 2.27465 4.51857L7.66697 9.92766L2.2672 15.3367C1.9097 15.6949 1.9097 16.2917 2.27465 16.6498Z" fill="#0C0C0C" stroke="#0C0C0C" stroke-width="0.2"/>
</svg>
