<svg width="24" height="24" viewBox="0 0 24 24" fill="none" xmlns="http://www.w3.org/2000/svg">
<g id="akar-icons:instagram-fill">
<path id="Vector" fill-rule="evenodd" clip-rule="evenodd" d="M7.38991 2.63813C8.42172 2.59063 8.7507 2.58008 11.379 2.58008C14.0073 2.58008 14.3363 2.59151 15.3673 2.63813C16.3982 2.68475 17.1019 2.84924 17.7176 3.08762C18.3624 3.33128 18.9473 3.71216 19.4311 4.20475C19.9237 4.68766 20.3037 5.27174 20.5465 5.91738C20.7858 6.53312 20.9494 7.23682 20.9969 8.26599C21.0444 9.29955 21.0549 9.62853 21.0549 12.256C21.0549 14.8843 21.0435 15.2133 20.9969 16.2451C20.9502 17.2742 20.7858 17.9779 20.5465 18.5937C20.3037 19.2394 19.9231 19.8245 19.4311 20.3081C18.9473 20.8007 18.3624 21.1807 17.7176 21.4235C17.1019 21.6627 16.3982 21.8263 15.369 21.8738C14.3363 21.9213 14.0073 21.9319 11.379 21.9319C8.7507 21.9319 8.42172 21.9204 7.38991 21.8738C6.36075 21.8272 5.65705 21.6627 5.04131 21.4235C4.39559 21.1806 3.81055 20.8 3.32692 20.3081C2.83466 19.8249 2.45372 19.2401 2.21067 18.5946C1.97229 17.9788 1.80868 17.2751 1.76118 16.246C1.71368 15.2124 1.70312 14.8834 1.70312 12.256C1.70312 9.62765 1.71456 9.29867 1.76118 8.26775C1.8078 7.23682 1.97229 6.53312 2.21067 5.91738C2.45408 5.27181 2.83531 4.68706 3.3278 4.20387C3.81075 3.71172 4.3952 3.33079 5.04043 3.08762C5.65617 2.84924 6.35987 2.68563 7.38903 2.63813H7.38991ZM15.289 4.3798C14.2686 4.33317 13.9625 4.3235 11.379 4.3235C8.79556 4.3235 8.48945 4.33317 7.46908 4.3798C6.52524 4.4229 6.0133 4.58035 5.672 4.71317C5.22075 4.8891 4.89793 5.09757 4.55927 5.43623C4.23825 5.74854 3.99119 6.12874 3.83622 6.54896C3.7034 6.89025 3.54594 7.40219 3.50284 8.34603C3.45622 9.3664 3.44655 9.67251 3.44655 12.256C3.44655 14.8394 3.45622 15.1456 3.50284 16.1659C3.54594 17.1098 3.7034 17.6217 3.83622 17.963C3.99103 18.3826 4.23821 18.7635 4.55927 19.0757C4.87154 19.3968 5.25242 19.644 5.672 19.7988C6.0133 19.9316 6.52524 20.0891 7.46908 20.1322C8.48945 20.1788 8.79468 20.1885 11.379 20.1885C13.9634 20.1885 14.2686 20.1788 15.289 20.1322C16.2328 20.0891 16.7447 19.9316 17.086 19.7988C17.5373 19.6229 17.8601 19.4144 18.1988 19.0757C18.5198 18.7635 18.767 18.3826 18.9218 17.963C19.0546 17.6217 19.2121 17.1098 19.2552 16.1659C19.3018 15.1456 19.3115 14.8394 19.3115 12.256C19.3115 9.67251 19.3018 9.3664 19.2552 8.34603C19.2121 7.40219 19.0546 6.89025 18.9218 6.54896C18.7459 6.09771 18.5374 5.77488 18.1988 5.43623C17.8864 5.11523 17.5062 4.86817 17.086 4.71317C16.7447 4.58035 16.2328 4.4229 15.289 4.3798ZM10.1431 15.2388C10.8334 15.5261 11.6019 15.5649 12.3175 15.3485C13.0331 15.1321 13.6514 14.674 14.0668 14.0524C14.4822 13.4308 14.6689 12.6842 14.595 11.9403C14.5211 11.1963 14.1912 10.5011 13.6617 9.97334C13.3241 9.63599 12.9159 9.37767 12.4665 9.21699C12.0172 9.05632 11.5377 8.99727 11.0628 9.04412C10.5879 9.09096 10.1292 9.24253 9.71987 9.4879C9.31054 9.73328 8.9607 10.0664 8.69555 10.4632C8.43039 10.86 8.25651 11.3106 8.18643 11.7827C8.11635 12.2548 8.1518 12.7365 8.29025 13.1932C8.42869 13.65 8.66668 14.0703 8.98707 14.424C9.30747 14.7777 9.7023 15.056 10.1431 15.2388ZM7.86227 8.73923C8.3241 8.2774 8.87237 7.91106 9.47577 7.66112C10.0792 7.41118 10.7259 7.28254 11.379 7.28254C12.0321 7.28254 12.6789 7.41118 13.2823 7.66112C13.8857 7.91106 14.4339 8.2774 14.8958 8.73923C15.3576 9.20105 15.7239 9.74932 15.9739 10.3527C16.2238 10.9561 16.3525 11.6029 16.3525 12.256C16.3525 12.9091 16.2238 13.5558 15.9739 14.1592C15.7239 14.7626 15.3576 15.3109 14.8958 15.7727C13.9631 16.7054 12.6981 17.2294 11.379 17.2294C10.06 17.2294 8.79497 16.7054 7.86227 15.7727C6.92957 14.84 6.40559 13.575 6.40559 12.256C6.40559 10.9369 6.92957 9.67193 7.86227 8.73923ZM17.4555 8.02321C17.5699 7.91525 17.6615 7.78543 17.7249 7.64143C17.7883 7.49743 17.8221 7.34218 17.8244 7.18486C17.8267 7.02755 17.7974 6.87138 17.7383 6.72559C17.6791 6.57981 17.5913 6.44737 17.4801 6.33612C17.3688 6.22487 17.2364 6.13708 17.0906 6.07793C16.9448 6.01878 16.7886 5.98949 16.6313 5.99178C16.474 5.99408 16.3188 6.02791 16.1748 6.09128C16.0308 6.15465 15.9009 6.24627 15.793 6.36072C15.583 6.58329 15.4681 6.87892 15.4725 7.18486C15.477 7.49081 15.6005 7.78297 15.8169 7.99932C16.0332 8.21568 16.3254 8.3392 16.6313 8.34366C16.9373 8.34812 17.2329 8.23317 17.4555 8.02321Z" fill="white"/>
</g>
</svg>
