<svg width="83" height="18" viewBox="0 0 83 18" fill="none" xmlns="http://www.w3.org/2000/svg">
<path d="M21.1249 0C23.2128 0 24.8913 0.644801 26.1605 1.9344C27.4501 3.20353 28.0949 4.98441 28.0949 7.27703V17.2561H23.7962V7.86043C23.7962 6.52988 23.4585 5.51663 22.783 4.82065C22.1074 4.10421 21.1863 3.74598 20.0195 3.74598C18.8527 3.74598 17.9214 4.10421 17.2254 4.82065C16.5499 5.51663 16.2121 6.52988 16.2121 7.86043V17.2561H11.9135V7.86043C11.9135 6.52988 11.5757 5.51663 10.9002 4.82065C10.2247 4.10421 9.30355 3.74598 8.13677 3.74598C6.94952 3.74598 6.0079 4.10421 5.31193 4.82065C4.63642 5.51663 4.29867 6.52988 4.29867 7.86043V17.2561H0V0H4.29867V2.30286C4.85136 1.58641 5.55757 1.02349 6.4173 0.614095C7.2975 0.204698 8.25959 0 9.30355 0C10.6341 0 11.8213 0.286578 12.8653 0.859734C13.9093 1.41242 14.7178 2.21075 15.291 3.25471C15.8437 2.27216 16.642 1.48407 17.686 0.890438C18.7504 0.296813 19.8967 0 21.1249 0Z" fill="#0C0C0C"/>
<path d="M39.007 17.2561C37.3924 17.2561 35.9392 16.9041 34.6475 16.2002C33.3558 15.4762 32.3366 14.4605 31.5899 13.1533C30.8633 11.846 30.5 10.3376 30.5 8.62805C30.5 6.91853 30.8734 5.41013 31.6201 4.10285C32.3871 2.79557 33.4265 1.78997 34.7383 1.08605C36.0502 0.362016 37.5134 0 39.1281 0C40.7427 0 42.2059 0.362016 43.5178 1.08605C44.8296 1.78997 45.8589 2.79557 46.6057 4.10285C47.3726 5.41013 47.7561 6.91853 47.7561 8.62805C47.7561 10.3376 47.3625 11.846 46.5754 13.1533C45.8085 14.4605 44.759 15.4762 43.4269 16.2002C42.1151 16.9041 40.6417 17.2561 39.007 17.2561ZM39.007 13.5756C39.7739 13.5756 40.4904 13.3946 41.1564 13.0326C41.8426 12.6505 42.3875 12.0873 42.7912 11.3432C43.1948 10.599 43.3967 9.69399 43.3967 8.62805C43.3967 7.0392 42.9728 5.82243 42.1252 4.97772C41.2977 4.11291 40.2785 3.6805 39.0675 3.6805C37.8565 3.6805 36.8373 4.11291 36.0098 4.97772C35.2025 5.82243 34.7989 7.0392 34.7989 8.62805C34.7989 10.2169 35.1924 11.4437 35.9796 12.3086C36.7869 13.1533 37.796 13.5756 39.007 13.5756Z" fill="#0C0C0C"/>
<path d="M59.5427 17.2561L55.9918 11.8986L52.8459 17.2561H48.1736L53.8115 8.59691L48.1113 0H53.0327L56.5525 5.32635L59.7296 0H64.4019L58.7329 8.59691L64.4642 17.2561H59.5427Z" fill="#0C0C0C"/>
<path d="M82.1179 0L76.0999 11.2015V17.2594H71.7999V11.2015L65.8379 0H70.7528L74.0676 7.77246L77.4377 0H82.1179Z" fill="#0C0C0C"/>
</svg>
