<svg width="88" height="19" viewBox="0 0 88 19" fill="none" xmlns="http://www.w3.org/2000/svg">
<path d="M22.4289 0C24.6457 0 26.4279 0.684603 27.7753 2.05381C29.1445 3.40128 29.8291 5.29209 29.8291 7.72623V18.3213H25.2651V8.34564C25.2651 6.93296 24.9065 5.85716 24.1893 5.11822C23.4721 4.35755 22.4941 3.97722 21.2553 3.97722C20.0165 3.97722 19.0276 4.35755 18.2887 5.11822C17.5715 5.85716 17.2129 6.93296 17.2129 8.34564V18.3213H12.6489V8.34564C12.6489 6.93296 12.2903 5.85716 11.5731 5.11822C10.8558 4.35755 9.87784 3.97722 8.63904 3.97722C7.3785 3.97722 6.37876 4.35755 5.63982 5.11822C4.92262 5.85716 4.56402 6.93296 4.56402 8.34564V18.3213H0V0H4.56402V2.44501C5.15082 1.68434 5.90063 1.08667 6.81343 0.652002C7.74797 0.217334 8.76944 0 9.87784 0C11.2905 0 12.5511 0.304268 13.6595 0.912804C14.7679 1.49961 15.6263 2.34721 16.2349 3.45562C16.8217 2.41241 17.6693 1.57567 18.7777 0.945404C19.9078 0.315135 21.1249 0 22.4289 0Z" fill="#0C0C0C"/>
<path d="M41.4138 18.3213C39.6995 18.3213 38.1567 17.9476 36.7853 17.2002C35.4138 16.4315 34.3317 15.3532 33.5388 13.9652C32.7674 12.5772 32.3817 10.9757 32.3817 9.16065C32.3817 7.3456 32.7781 5.74409 33.571 4.35611C34.3853 2.96814 35.4888 1.90046 36.8817 1.15309C38.2745 0.384363 39.8281 0 41.5424 0C43.2566 0 44.8102 0.384363 46.203 1.15309C47.5959 1.90046 48.6887 2.96814 49.4816 4.35611C50.2959 5.74409 50.703 7.3456 50.703 9.16065C50.703 10.9757 50.2852 12.5772 49.4494 13.9652C48.6352 15.3532 47.5209 16.4315 46.1066 17.2002C44.7138 17.9476 43.1495 18.3213 41.4138 18.3213ZM41.4138 14.4136C42.2281 14.4136 42.9888 14.2214 43.6959 13.8371C44.4245 13.4313 45.0031 12.8334 45.4316 12.0434C45.8602 11.2533 46.0745 10.2924 46.0745 9.16065C46.0745 7.47372 45.6245 6.18184 44.7245 5.28499C43.8459 4.36679 42.7638 3.90769 41.4781 3.90769C40.1924 3.90769 39.1102 4.36679 38.2317 5.28499C37.3745 6.18184 36.946 7.47372 36.946 9.16065C36.946 10.8476 37.3638 12.1501 38.1995 13.0683C39.0567 13.9652 40.1281 14.4136 41.4138 14.4136Z" fill="#0C0C0C"/>
<path d="M63.2184 18.3213L59.4483 12.6331L56.1081 18.3213H51.1475L57.1333 9.12759L51.0813 0H56.3065L60.0436 5.65514L63.4168 0H68.3774L62.3585 9.12759L68.4436 18.3213H63.2184Z" fill="#0C0C0C"/>
<path d="M87.1859 0L80.7964 11.8929V18.3248H76.231V11.8929L69.9009 0H75.1193L78.6386 8.25224L82.2168 0H87.1859Z" fill="#0C0C0C"/>
</svg>
