<svg width="50" height="50" viewBox="0 0 50 50" fill="none" xmlns="http://www.w3.org/2000/svg">
<path d="M4.16663 39.85V10.45C4.16663 9.33609 4.60912 8.2678 5.39678 7.48015C6.18443 6.6925 7.25272 6.25 8.36663 6.25H41.9666C43.0805 6.25 44.1488 6.6925 44.9365 7.48015C45.7241 8.2678 46.1666 9.33609 46.1666 10.45V39.85C46.1666 40.9639 45.7241 42.0322 44.9365 42.8198C44.1488 43.6075 43.0805 44.05 41.9666 44.05H8.36663C7.25272 44.05 6.18443 43.6075 5.39678 42.8198C4.60912 42.0322 4.16663 40.9639 4.16663 39.85Z" stroke="#9BA4B8" stroke-width="2"/>
<path d="M4.16663 14.6504H46.1666M18.8666 29.3504H25.1666M25.1666 29.3504H31.4666M25.1666 29.3504V23.0504M25.1666 29.3504V35.6504" stroke="#9BA4B8" stroke-width="2" stroke-linecap="round" stroke-linejoin="round"/>
</svg>
