<svg width="32" height="32" viewBox="0 0 32 32" fill="none" xmlns="http://www.w3.org/2000/svg">
<path d="M7.6 4.40039C3.9625 4.40039 1 7.31225 1 10.8876C1 12.2721 1.44766 13.5529 2.2 14.608V22.6847C2.2 23.6638 3.00391 24.4517 4 24.4517H5.25625C5.54219 26.1195 7.02344 27.4004 8.8 27.4004C10.5766 27.4004 12.0578 26.1195 12.3438 24.4517H17.8938C18.3391 24.4517 18.7445 24.2743 19.0492 23.9955C19.3563 24.2628 19.7477 24.4471 20.1953 24.4517H20.8563C21.1422 26.1195 22.6234 27.4004 24.4 27.4004C26.3805 27.4004 28 25.8085 28 23.8619C28 21.9153 26.3805 20.3235 24.4 20.3235C22.6234 20.3235 21.1422 21.6043 20.8563 23.2722H20.2047C20.0922 23.2722 19.9234 23.2031 19.7969 23.0787C19.668 22.952 19.6 22.7907 19.6 22.6824V11.4773C19.6 11.2562 19.975 10.8876 20.2 10.8876H25C25.4758 10.8876 26.1531 11.399 26.6125 11.9404L26.7063 12.0671H23.8C22.8438 12.0671 22 12.8273 22 13.8363V16.1953C22 16.6859 22.232 17.1098 22.5508 17.4231C22.8695 17.7364 23.3008 17.9645 23.8 17.9645H29.8V22.6824C29.8 22.9036 29.425 23.2722 29.2 23.2722H28V24.4517H29.2C30.1961 24.4517 31 23.6615 31 22.6824V17.0131C31 15.6631 30.0414 14.4698 30.0414 14.4698L30.0344 14.4629L27.5477 11.2032L27.5383 11.1917C26.9852 10.5351 26.1484 9.70808 25 9.70808H20.2C19.9867 9.70808 19.7875 9.74955 19.6 9.81636V8.47331C19.6 7.56796 18.8734 6.75937 17.9125 6.75937H12.6883C11.4742 5.31956 9.64375 4.40039 7.6 4.40039ZM7.6 5.57988C10.5883 5.57988 13 7.95037 13 10.8876C13 13.8248 10.5883 16.1953 7.6 16.1953C4.61172 16.1953 2.2 13.8248 2.2 10.8876C2.2 7.95037 4.61172 5.57988 7.6 5.57988ZM7.59063 6.16041C7.26016 6.16732 6.99531 6.43455 7 6.75937V10.1688C6.77969 10.3462 6.65313 10.6088 6.65313 10.8876C6.65313 10.9175 6.65547 10.9475 6.65781 10.9797L5.37578 12.2398C5.21875 12.3873 5.15547 12.6084 5.21172 12.8135C5.26562 13.0208 5.42969 13.182 5.64062 13.235C5.84922 13.2903 6.07422 13.2281 6.22422 13.0738L7.50625 11.8137C7.53672 11.816 7.56953 11.8183 7.6 11.8183C8.12266 11.8183 8.54688 11.4013 8.54688 10.8876C8.54688 10.6088 8.42031 10.3462 8.2 10.1688V6.75937C8.20234 6.60041 8.13906 6.44606 8.02422 6.33318C7.90938 6.2203 7.75234 6.1581 7.59063 6.16041ZM13.4711 7.93885H17.9125C18.1703 7.93885 18.4 8.18304 18.4 8.47331V11.4658C18.4 11.4704 18.4 11.4727 18.4 11.4773V22.6824C18.4 22.687 18.4 22.6894 18.4 22.6917V22.7746C18.4 23.0533 18.1773 23.2722 17.8938 23.2722H12.3438C12.0578 21.6043 10.5766 20.3235 8.8 20.3235C7.02344 20.3235 5.54219 21.6043 5.25625 23.2722H4C3.775 23.2722 3.4 22.9036 3.4 22.6847V15.8843C4.54141 16.815 6.00625 17.3748 7.6 17.3748C11.2375 17.3748 14.2 14.4629 14.2 10.8876C14.2 9.82557 13.9352 8.82347 13.4711 7.93885ZM23.8 13.2465H27.6063L29.0641 15.1563C29.0664 15.1609 29.6148 16.0801 29.7297 16.785H23.8C23.6992 16.785 23.5305 16.7182 23.3992 16.5892C23.268 16.4602 23.2 16.2943 23.2 16.1953V13.8363C23.2 13.5391 23.5563 13.2465 23.8 13.2465ZM8.8 21.503C10.1336 21.503 11.2 22.5511 11.2 23.8619C11.2 25.1727 10.1336 26.2209 8.8 26.2209C7.46641 26.2209 6.4 25.1727 6.4 23.8619C6.4 22.5511 7.46641 21.503 8.8 21.503ZM24.4 21.503C25.7336 21.503 26.8 22.5511 26.8 23.8619C26.8 25.1727 25.7336 26.2209 24.4 26.2209C23.0664 26.2209 22 25.1727 22 23.8619C22 22.5511 23.0664 21.503 24.4 21.503Z" fill="#0C0C0C"/>
</svg>
