<svg width="32" height="32" viewBox="0 0 32 32" fill="none" xmlns="http://www.w3.org/2000/svg">
<path d="M25.3333 14.0956V24.0003C25.3333 25.4731 24.1394 26.667 22.6667 26.667H8.00001C6.52725 26.667 5.33334 25.4731 5.33334 24.0003V9.33366C5.33334 7.8609 6.52725 6.66699 8.00001 6.66699H17.9048" stroke="#0C0C0C" stroke-width="1.5" stroke-linecap="round" stroke-linejoin="round"/>
<path fill-rule="evenodd" clip-rule="evenodd" d="M23.9024 9.75593C24.7107 9.75593 25.3659 9.10074 25.3659 8.29252C25.3659 7.48429 24.7107 6.8291 23.9024 6.8291C23.0942 6.8291 22.439 7.48429 22.439 8.29252C22.439 9.10074 23.0942 9.75593 23.9024 9.75593Z" fill="#0C0C0C" stroke="#0C0C0C" stroke-width="1.5" stroke-linecap="round"/>
<path d="M10.6667 20L14.6667 14.6667L17.3344 17.3333L21.3333 12" stroke="#0C0C0C" stroke-width="1.5" stroke-linecap="round" stroke-linejoin="round"/>
</svg>
