<svg width="22" height="22" viewBox="0 0 22 22" fill="none" xmlns="http://www.w3.org/2000/svg">
<path d="M19.1099 13.6175L15.0614 11.8033L15.0502 11.7982C14.8401 11.7083 14.6108 11.6722 14.3832 11.6932C14.1555 11.7142 13.9367 11.7917 13.7466 11.9185C13.7242 11.9333 13.7027 11.9494 13.6821 11.9666L11.5904 13.7498C10.2652 13.1062 8.89712 11.7483 8.25345 10.4404L10.0392 8.31686C10.0564 8.29537 10.0727 8.27389 10.0882 8.25069C10.2123 8.06102 10.2876 7.84362 10.3074 7.61782C10.3272 7.39202 10.2909 7.16483 10.2016 6.95647V6.94615L8.38235 2.89076C8.26439 2.61857 8.06157 2.39182 7.80415 2.24437C7.54674 2.09693 7.24854 2.03668 6.95407 2.07264C5.78959 2.22587 4.72071 2.79775 3.94706 3.68147C3.17341 4.56519 2.7479 5.70031 2.75001 6.87483C2.75001 13.6983 8.30157 19.2498 15.125 19.2498C16.2995 19.2519 17.4346 18.8264 18.3184 18.0528C19.2021 17.2791 19.774 16.2102 19.9272 15.0458C19.9632 14.7514 19.9031 14.4533 19.7558 14.1959C19.6085 13.9385 19.382 13.7356 19.1099 13.6175ZM15.125 17.8748C12.2086 17.8716 9.41256 16.7117 7.35035 14.6495C5.28814 12.5873 4.12819 9.79123 4.12501 6.87483C4.12177 6.03564 4.42411 5.22396 4.97556 4.59139C5.52701 3.95881 6.28986 3.54859 7.12165 3.43733C7.12131 3.44076 7.12131 3.44421 7.12165 3.44764L8.92634 7.4867L7.15001 9.6128C7.13198 9.63354 7.1156 9.65567 7.10102 9.67897C6.9717 9.87741 6.89583 10.1059 6.88078 10.3423C6.86572 10.5787 6.91199 10.8149 7.01509 11.0282C7.79368 12.6206 9.39813 14.213 11.0077 14.9908C11.2226 15.0929 11.4602 15.1376 11.6974 15.1204C11.9347 15.1032 12.1634 15.0248 12.3613 14.8928C12.3833 14.8779 12.4046 14.8619 12.4249 14.8447L14.514 13.0623L18.5531 14.8713H18.5625C18.4526 15.7043 18.043 16.4687 17.4103 17.0215C16.7776 17.5743 15.9652 17.8777 15.125 17.8748Z" fill="#0C0C0C"/>
</svg>
