<svg width="22" height="21" viewBox="0 0 22 21" fill="none" xmlns="http://www.w3.org/2000/svg">
<path d="M13.5 6H13.51M11 19H4.5C3.70435 19 2.94129 18.6839 2.37868 18.1213C1.81607 17.5587 1.5 16.7956 1.5 16V4C1.5 3.20435 1.81607 2.44129 2.37868 1.87868C2.94129 1.31607 3.70435 1 4.5 1H16.5C17.2956 1 18.0587 1.31607 18.6213 1.87868C19.1839 2.44129 19.5 3.20435 19.5 4V10.5" stroke="#0C0C0C" stroke-width="2" stroke-linecap="round" stroke-linejoin="round"/>
<path d="M1.5 13.9998L6.5 8.99983C7.428 8.10683 8.572 8.10683 9.5 8.99983L13.5 12.9998" stroke="#0C0C0C" stroke-width="2" stroke-linecap="round" stroke-linejoin="round"/>
<path d="M12.5 12.0004L13.5 11.0004C14.17 10.3564 14.95 10.1764 15.682 10.4604M14.5 17.0004H20.5M17.5 14.0004V20.0004" stroke="#0C0C0C" stroke-width="2" stroke-linecap="round" stroke-linejoin="round"/>
</svg>
