<svg width="40" height="32" viewBox="0 0 40 32" fill="none" xmlns="http://www.w3.org/2000/svg">
<path d="M5.41663 26.4167C5.41663 27.5217 5.85561 28.5815 6.63701 29.3629C7.41842 30.1443 8.47822 30.5833 9.58329 30.5833C10.6884 30.5833 11.7482 30.1443 12.5296 29.3629C13.311 28.5815 13.75 27.5217 13.75 26.4167C13.75 25.3116 13.311 24.2518 12.5296 23.4704C11.7482 22.689 10.6884 22.25 9.58329 22.25C8.47822 22.25 7.41842 22.689 6.63701 23.4704C5.85561 24.2518 5.41663 25.3116 5.41663 26.4167ZM26.25 26.4167C26.25 27.5217 26.6889 28.5815 27.4703 29.3629C28.2517 30.1443 29.3116 30.5833 30.4166 30.5833C31.5217 30.5833 32.5815 30.1443 33.3629 29.3629C34.1443 28.5815 34.5833 27.5217 34.5833 26.4167C34.5833 25.3116 34.1443 24.2518 33.3629 23.4704C32.5815 22.689 31.5217 22.25 30.4166 22.25C29.3116 22.25 28.2517 22.689 27.4703 23.4704C26.6889 24.2518 26.25 25.3116 26.25 26.4167Z" stroke="#9BA4B8" stroke-width="2" stroke-linecap="round" stroke-linejoin="round"/>
<path d="M5.41667 26.417H1.25V3.50033C1.25 2.94779 1.46949 2.41789 1.86019 2.02719C2.25089 1.63649 2.7808 1.41699 3.33333 1.41699H22.0833V13.917H11.6667M11.6667 13.917L15.8333 18.0837M11.6667 13.917L15.8333 9.75033M13.75 26.417H26.25M22.0833 3.50033H32.5L38.75 13.917V26.417H34.5833" stroke="#9BA4B8" stroke-width="2" stroke-linecap="round" stroke-linejoin="round"/>
</svg>
