<svg width="51" height="51" viewBox="0 0 51 51" fill="none" xmlns="http://www.w3.org/2000/svg">
<path d="M29.4695 8.91699H21.0318C13.078 8.91699 9.10117 8.91699 6.62877 11.3831C4.9244 13.079 4.39625 15.4883 4.23002 19.4147C4.19846 20.1932 4.18163 20.5846 4.32681 20.8434C4.47411 21.1022 5.05275 21.4284 6.21425 22.0765C6.86851 22.4412 7.4135 22.974 7.79289 23.6199C8.17228 24.2658 8.37231 25.0013 8.37231 25.7503C8.37231 26.4994 8.17228 27.2349 7.79289 27.8807C7.4135 28.5266 6.86851 29.0595 6.21425 29.4242C5.05275 30.0744 4.472 30.3984 4.32681 30.6572C4.18163 30.9161 4.19846 31.3053 4.23213 32.0839C4.39625 36.0123 4.9265 38.4216 6.62877 40.1176C9.09907 42.5837 13.0759 42.5837 21.0318 42.5837H29.4695C37.4233 42.5837 41.4001 42.5837 43.8725 40.1176C45.5769 38.4216 46.105 36.0123 46.2713 32.086C46.3028 31.3074 46.3197 30.9161 46.1745 30.6572C46.0272 30.3984 45.4485 30.0744 44.287 29.4242C43.6328 29.0595 43.0878 28.5266 42.7084 27.8807C42.329 27.2349 42.129 26.4994 42.129 25.7503C42.129 25.0013 42.329 24.2658 42.7084 23.6199C43.0878 22.974 43.6328 22.4412 44.287 22.0765C45.4485 21.4284 46.0293 21.1022 46.1745 20.8434C46.3197 20.5846 46.3028 20.1953 46.2692 19.4147C46.105 15.4883 45.5748 13.0811 43.8725 11.3831C41.4022 8.91699 37.4254 8.91699 29.4695 8.91699Z" stroke="#9BA4B8" stroke-width="2"/>
<path d="M18.9375 32.0625L31.5625 19.4375" stroke="#9BA4B8" stroke-width="2" stroke-linecap="round"/>
<path d="M32.6144 31.0107C32.6144 31.5688 32.3927 32.104 31.9981 32.4986C31.6035 32.8932 31.0683 33.1149 30.5103 33.1149C29.9522 33.1149 29.417 32.8932 29.0224 32.4986C28.6278 32.104 28.4061 31.5688 28.4061 31.0107C28.4061 30.4527 28.6278 29.9175 29.0224 29.5229C29.417 29.1283 29.9522 28.9066 30.5103 28.9066C31.0683 28.9066 31.6035 29.1283 31.9981 29.5229C32.3927 29.9175 32.6144 30.4527 32.6144 31.0107ZM22.0936 20.4899C22.0936 21.048 21.8719 21.5832 21.4773 21.9778C21.0827 22.3724 20.5475 22.5941 19.9894 22.5941C19.4314 22.5941 18.8962 22.3724 18.5016 21.9778C18.1069 21.5832 17.8853 21.048 17.8853 20.4899C17.8853 19.9318 18.1069 19.3966 18.5016 19.002C18.8962 18.6074 19.4314 18.3857 19.9894 18.3857C20.5475 18.3857 21.0827 18.6074 21.4773 19.002C21.8719 19.3966 22.0936 19.9318 22.0936 20.4899Z" fill="#9BA4B8"/>
</svg>
