<svg width="26" height="24" viewBox="0 0 26 24" fill="none" xmlns="http://www.w3.org/2000/svg">
<path d="M11.4432 4C10.1688 4 8.9231 4.37788 7.86353 5.08587C6.80396 5.79385 5.97813 6.80013 5.49046 7.97746C5.00279 9.15479 4.8752 10.4503 5.12381 11.7001C5.37242 12.95 5.98607 14.098 6.88716 14.9991C7.78825 15.9002 8.93631 16.5139 10.1862 16.7625C11.436 17.0111 12.7315 16.8835 13.9088 16.3958C15.0862 15.9082 16.0925 15.0823 16.8004 14.0228C17.5084 12.9632 17.8863 11.7175 17.8863 10.4431C17.8862 8.73435 17.2073 7.09557 15.999 5.88727C14.7907 4.67897 13.1519 4.00011 11.4432 4V4Z" stroke="#0C0C0C" stroke-width="1.10526" stroke-miterlimit="10"/>
<path d="M16.25 15.25L20.7498 19.7498" stroke="#0C0C0C" stroke-width="1.10526" stroke-miterlimit="10" stroke-linecap="round"/>
</svg>
