<svg width="22" height="22" viewBox="0 0 22 22" fill="none" xmlns="http://www.w3.org/2000/svg">
<path d="M18.3333 5.5H2.75M9.16667 14.6667H2.75M8.25 10.0833H2.75" stroke="#0C0C0C" stroke-width="1.5" stroke-linecap="round"/>
<path d="M16.0417 9.26417L15.5504 9.74542C15.6144 9.81083 15.6909 9.8628 15.7752 9.89828C15.8596 9.93376 15.9502 9.95204 16.0417 9.95204C16.1333 9.95204 16.2239 9.93376 16.3083 9.89828C16.3926 9.8628 16.4691 9.81083 16.5331 9.74542L16.0417 9.26417ZM15.5238 14.3957C14.9335 13.9603 14.1791 13.3443 13.5777 12.6577C12.9544 11.9473 12.6042 11.2808 12.6042 10.7391H11.2292C11.2292 11.8024 11.87 12.7943 12.5428 13.5633C13.2377 14.3563 14.0819 15.0419 14.708 15.503L15.5238 14.3957ZM12.6042 10.7391C12.6042 9.72342 13.058 9.18901 13.5237 9.01392C13.9985 8.83701 14.7538 8.93142 15.5504 9.74542L16.5331 8.78292C15.4734 7.70126 14.1672 7.30617 13.0424 7.72601C11.9103 8.14951 11.2292 9.29992 11.2292 10.7391H12.6042ZM17.3755 15.503C18.0016 15.0419 18.8458 14.3572 19.5407 13.5633C20.2135 12.7943 20.8542 11.8033 20.8542 10.7391H19.4792C19.4792 11.2808 19.1282 11.9473 18.5057 12.6577C17.9053 13.3443 17.1491 13.9612 16.5597 14.3957L17.3755 15.503ZM20.8542 10.7391C20.8542 9.29992 20.1732 8.14951 19.0411 7.72601C17.9163 7.30617 16.6101 7.70126 15.5504 8.78292L16.5331 9.74542C17.3297 8.93142 18.0859 8.83792 18.5589 9.01392C19.0264 9.18809 19.4792 9.72342 19.4792 10.7391H20.8542ZM14.708 15.503C15.0673 15.7679 15.4688 16.097 16.0417 16.097V14.722C16.028 14.722 16.0124 14.7248 15.9492 14.6899C15.8016 14.6008 15.6596 14.5019 15.5238 14.3957L14.708 15.503ZM16.5597 14.3957C16.424 14.502 16.2819 14.6009 16.1343 14.6899C16.0702 14.7248 16.0555 14.722 16.0417 14.722V16.097C16.6147 16.097 17.0162 15.767 17.3755 15.503L16.5597 14.3957Z" fill="#0C0C0C"/>
</svg>
