<svg width="101" height="101" viewBox="0 0 101 101" fill="none" xmlns="http://www.w3.org/2000/svg">
<g clip-path="url(#clip0_50_7424)">
<path d="M96.9812 50.4978C98.5256 48.6993 99.6078 46.5513 100.134 44.2399C100.66 41.9285 100.615 39.5236 100.001 37.2339C99.3875 34.9441 98.2245 32.8387 96.613 31.1001C95.0015 29.3616 92.9902 28.0425 90.7534 27.2573C91.1917 24.9276 91.0549 22.526 90.3548 20.2611C89.6548 17.9962 88.4127 15.9363 86.7363 14.2601C85.0599 12.5839 82.9999 11.3421 80.7349 10.6424C78.4699 9.94263 76.0683 9.80611 73.7386 10.2447C72.954 8.00744 71.6352 5.99554 69.8966 4.38364C68.1581 2.77174 66.0524 1.60857 63.7623 0.995106C61.4722 0.381644 59.067 0.336438 56.7555 0.863412C54.444 1.39039 52.2961 2.47361 50.4982 4.01904C48.6997 2.47468 46.5517 1.39243 44.2403 0.86618C41.9289 0.339934 39.524 0.385586 37.2342 0.999173C34.9445 1.61276 32.839 2.77575 31.1005 4.38726C29.362 5.99877 28.0429 8.01012 27.2577 10.2468C24.9281 9.80898 22.5268 9.94611 20.2622 10.6463C17.9976 11.3465 15.938 12.5887 14.2621 14.265C12.5862 15.9414 11.3446 18.0013 10.6449 20.2661C9.94529 22.5309 9.80878 24.9322 10.2472 27.2617C8.01051 28.0469 5.99915 29.3659 4.38765 31.1045C2.77614 32.843 1.61314 34.9485 0.999551 37.2382C0.385963 39.5279 0.340304 41.9328 0.86655 44.2442C1.3928 46.5556 2.47507 48.7037 4.01943 50.5021C2.4746 52.3005 1.39199 54.4487 0.865598 56.7603C0.339202 59.072 0.384901 61.4771 0.998757 63.7671C1.61261 66.057 2.77606 68.1626 4.38812 69.9009C6.00018 71.6393 8.01216 72.958 10.2494 73.7425C9.81057 76.0721 9.94693 78.4736 10.6466 80.7385C11.3464 83.0034 12.5883 85.0633 14.2646 86.7394C15.941 88.4156 18.001 89.6572 20.266 90.3566C22.5311 91.0561 24.9325 91.1921 27.2621 90.753C28.0473 92.9897 29.3663 95.0011 31.1049 96.6126C32.8434 98.2241 34.9488 99.3871 37.2386 100.001C39.5283 100.614 41.9332 100.66 44.2446 100.134C46.556 99.6074 48.7041 98.5252 50.5025 96.9808C52.3009 98.5257 54.4491 99.6083 56.7607 100.135C59.0724 100.661 61.4775 100.615 63.7675 100.001C66.0574 99.3876 68.163 98.2242 69.9013 96.6121C71.6397 95.0001 72.9584 92.9881 73.743 90.7509C76.0726 91.1895 78.4741 91.0531 80.739 90.3534C83.004 89.6536 85.064 88.4118 86.7402 86.7355C88.4165 85.0593 89.6584 82.9993 90.3581 80.7343C91.0579 78.4694 91.1943 76.0679 90.7556 73.7382C92.9925 72.9532 95.004 71.6341 96.6156 69.8956C98.2272 68.157 99.3901 66.0514 100.004 63.7615C100.617 61.4716 100.662 59.0666 100.136 56.7552C99.6089 54.4438 98.5262 52.2959 96.9812 50.4978Z" fill="#BEFAA8"/>
<path d="M41.5246 69.5843L27.6301 55.6986C27.1028 55.1704 26.8066 54.4546 26.8066 53.7082C26.8066 52.9619 27.1028 52.246 27.6301 51.7179L29.3182 50.0277C29.8464 49.5004 30.5622 49.2042 31.3085 49.2042C32.0549 49.2042 32.7707 49.5004 33.2989 50.0277L43.399 60.1213L67.1855 34.8439C67.6973 34.3008 68.4037 33.983 69.1496 33.9603C69.8956 33.9375 70.62 34.2117 71.164 34.7226L72.8976 36.3586C73.4413 36.8705 73.7595 37.5774 73.7822 38.3238C73.805 39.0703 73.5304 39.7952 73.0189 40.3393L45.5724 69.5215C45.314 69.7969 45.0028 70.0175 44.6574 70.1703C44.312 70.323 43.9394 70.4048 43.5618 70.4106C43.1842 70.4165 42.8092 70.3464 42.4593 70.2044C42.1093 70.0625 41.7914 69.8516 41.5246 69.5843Z" fill="white"/>
</g>
<defs>
<clipPath id="clip0_50_7424">
<rect width="100" height="100" fill="white" transform="translate(0.5 0.5)"/>
</clipPath>
</defs>
</svg>
