<svg width="23" height="23" viewBox="0 0 23 23" fill="none" xmlns="http://www.w3.org/2000/svg">
<g id="tabler:brand-tiktok">
<path id="Vector" d="M19.8582 7.33015V11.0654C18.1786 10.8987 16.5771 10.2738 15.2285 9.25886V13.4256C15.2283 14.5562 14.9095 15.664 14.3088 16.6219C13.708 17.5798 12.8496 18.3491 11.8319 18.8416C10.8141 19.3342 9.67821 19.5301 8.55426 19.4069C7.43031 19.2838 6.36379 18.8465 5.47689 18.1451C4.58999 17.4438 3.91858 16.5069 3.53958 15.4416C3.16059 14.3763 3.08933 13.2258 3.33399 12.1219C3.57864 11.018 4.12931 10.0054 4.9229 9.19999C5.71649 8.39459 6.7209 7.82904 7.82106 7.56811V11.5737C7.5054 11.8104 7.25549 12.1239 7.09508 12.4844C6.93466 12.8449 6.86905 13.2405 6.90449 13.6334C6.93992 14.0264 7.07522 14.4038 7.29754 14.7298C7.51986 15.0558 7.82182 15.3195 8.17474 15.496C8.52766 15.6725 8.91983 15.7558 9.31401 15.738C9.70819 15.7203 10.0913 15.6021 10.4269 15.3947C10.7626 15.1872 11.0396 14.8974 11.2318 14.5528C11.4239 14.2082 11.5248 13.8201 11.5248 13.4256V2.77734H15.3054C15.4982 3.91476 16.04 4.96405 16.8557 5.77979C17.6715 6.59554 18.7208 7.13735 19.8582 7.33015Z" stroke="white" stroke-width="1.56864" stroke-linecap="round" stroke-linejoin="round"/>
</g>
</svg>
