<svg width="32" height="32" viewBox="0 0 32 32" fill="none" xmlns="http://www.w3.org/2000/svg">
<path fill-rule="evenodd" clip-rule="evenodd" d="M29 23.9945C29 24.7385 28.7023 25.4521 28.1723 25.9781C27.6423 26.5042 26.9234 26.7998 26.1739 26.7998H5.82609C5.45496 26.7998 5.08747 26.7272 4.74459 26.5863C4.40171 26.4453 4.09017 26.2386 3.82774 25.9781C3.29775 25.4521 3 24.7385 3 23.9945V7.72372C3 7.12851 3.2382 6.55767 3.66219 6.1368C4.08619 5.71592 4.66125 5.47947 5.26087 5.47947H16.6619L21.2401 3.83332C21.3793 3.78301 21.5329 3.78955 21.6673 3.8515C21.8016 3.91345 21.9058 4.02575 21.9568 4.16378L22.4384 5.47947H24.4783C25.0779 5.47947 25.6529 5.71592 26.0769 6.1368C26.5009 6.55767 26.7391 7.12851 26.7391 7.72372V8.84584C27.3387 8.84584 27.9138 9.08229 28.3378 9.50317C28.7618 9.92404 29 10.4949 29 11.0901V23.9945ZM5.26087 6.6016C4.96106 6.6016 4.67353 6.71982 4.46153 6.93026C4.24953 7.1407 4.13043 7.42611 4.13043 7.72372C4.13043 8.02132 4.24953 8.30674 4.46153 8.51718C4.67353 8.72762 4.96106 8.84584 5.26087 8.84584H7.31487C7.32222 8.84304 7.32674 8.83686 7.33409 8.83406L13.5413 6.6016H5.26087ZM21.6963 6.70315L21.096 5.0626L19.9362 5.47947L16.8213 6.6016H16.8156L10.5739 8.84584H22.4808L21.6963 6.70315ZM25.6087 7.72372C25.6087 7.42611 25.4896 7.1407 25.2776 6.93026C25.0656 6.71982 24.7781 6.6016 24.4783 6.6016H22.8487L23.6706 8.84584H25.6087V7.72372ZM26.7391 9.96796H5.26087C4.86285 9.96592 4.4726 9.85842 4.13043 9.65657V23.9945C4.13043 24.4409 4.30908 24.869 4.62708 25.1847C4.94508 25.5003 5.37637 25.6777 5.82609 25.6777H26.1739C26.6236 25.6777 27.0549 25.5003 27.3729 25.1847C27.6909 24.869 27.8696 24.4409 27.8696 23.9945V20.0671H25.6087C25.0091 20.0671 24.434 19.8306 24.01 19.4097C23.586 18.9889 23.3478 18.418 23.3478 17.8228C23.3478 17.2276 23.586 16.6568 24.01 16.2359C24.434 15.815 25.0091 15.5786 25.6087 15.5786H27.8696V11.0901C27.8696 10.7925 27.7505 10.5071 27.5385 10.2966C27.3265 10.0862 27.0389 9.96796 26.7391 9.96796ZM27.8696 18.9449V16.7007H25.6087C25.3089 16.7007 25.0214 16.8189 24.8094 17.0294C24.5974 17.2398 24.4783 17.5252 24.4783 17.8228C24.4783 18.1204 24.5974 18.4058 24.8094 18.6163C25.0214 18.8267 25.3089 18.9449 25.6087 18.9449H27.8696ZM25.6087 17.2618H26.7391V18.3839H25.6087V17.2618Z" fill="#0C0C0C"/>
</svg>
