<svg width="22" height="23" viewBox="0 0 22 23" fill="none" xmlns="http://www.w3.org/2000/svg">
<path fill-rule="evenodd" clip-rule="evenodd" d="M19.9375 17.3438C19.9375 17.8553 19.7328 18.3459 19.3684 18.7076C19.0041 19.0693 18.5099 19.2725 17.9946 19.2725H4.00543C3.75029 19.2725 3.49763 19.2226 3.26191 19.1257C3.02618 19.0287 2.81199 18.8867 2.63157 18.7076C2.2672 18.3459 2.0625 17.8553 2.0625 17.3438V6.15765C2.0625 5.74844 2.22626 5.356 2.51776 5.06664C2.80925 4.77729 3.20461 4.61473 3.61685 4.61473H11.455L14.6026 3.483C14.6983 3.44842 14.8039 3.45291 14.8963 3.4955C14.9886 3.53809 15.0602 3.6153 15.0953 3.7102L15.4264 4.61473H16.8288C17.241 4.61473 17.6364 4.77729 17.9279 5.06664C18.2194 5.356 18.3832 5.74844 18.3832 6.15765V6.92911C18.7954 6.92911 19.1907 7.09167 19.4822 7.38102C19.7737 7.67037 19.9375 8.06282 19.9375 8.47203V17.3438ZM3.61685 5.38619C3.41073 5.38619 3.21305 5.46747 3.0673 5.61215C2.92155 5.75682 2.83967 5.95305 2.83967 6.15765C2.83967 6.36226 2.92155 6.55848 3.0673 6.70316C3.21305 6.84783 3.41073 6.92911 3.61685 6.92911H5.02897C5.03402 6.92718 5.03713 6.92294 5.04219 6.92101L9.30965 5.38619H3.61685ZM14.9162 5.45601L14.5035 4.32814L13.7061 4.61473L11.5646 5.38619H11.5607L7.26957 6.92911H15.4555L14.9162 5.45601ZM17.606 6.15765C17.606 5.95305 17.5241 5.75682 17.3784 5.61215C17.2326 5.46747 17.0349 5.38619 16.8288 5.38619H15.7085L16.2735 6.92911H17.606V6.15765ZM18.3832 7.70057H3.61685C3.34321 7.69916 3.07491 7.62526 2.83967 7.48649V17.3438C2.83967 17.6507 2.96249 17.9451 3.18112 18.1621C3.39974 18.3791 3.69626 18.501 4.00543 18.501H17.9946C18.3037 18.501 18.6003 18.3791 18.8189 18.1621C19.0375 17.9451 19.1603 17.6507 19.1603 17.3438V14.6437H17.606C17.1937 14.6437 16.7984 14.4811 16.5069 14.1918C16.2154 13.9024 16.0516 13.51 16.0516 13.1008C16.0516 12.6916 16.2154 12.2991 16.5069 12.0098C16.7984 11.7204 17.1937 11.5579 17.606 11.5579H19.1603V8.47203C19.1603 8.26743 19.0784 8.0712 18.9327 7.92653C18.7869 7.78185 18.5893 7.70057 18.3832 7.70057ZM19.1603 13.8722V12.3293H17.606C17.3999 12.3293 17.2022 12.4106 17.0564 12.5553C16.9107 12.7 16.8288 12.8962 16.8288 13.1008C16.8288 13.3054 16.9107 13.5016 17.0564 13.6463C17.2022 13.791 17.3999 13.8722 17.606 13.8722H19.1603ZM17.606 12.7151H18.3832V13.4865H17.606V12.7151Z" fill="white"/>
</svg>
